<svg width="375" height="742" viewBox="0 0 375 742" fill="none" xmlns="http://www.w3.org/2000/svg">
<path fill-rule="evenodd" clip-rule="evenodd" d="M318.224 169.245C318.638 168.222 319.803 167.727 320.826 168.14L329.405 171.6C330.431 172.014 330.926 173.181 330.511 174.205L327.047 182.765C326.633 183.788 325.468 184.282 324.445 183.869L315.866 180.409C314.841 179.996 314.345 178.829 314.76 177.804L318.224 169.245Z" fill="#343434"/>
<path fill-rule="evenodd" clip-rule="evenodd" d="M250.216 629.56C250.63 628.537 251.794 628.042 252.818 628.455L261.397 631.915C262.422 632.329 262.917 633.496 262.502 634.52L259.038 643.08C258.624 644.103 257.46 644.597 256.436 644.184L247.857 640.724C246.832 640.311 246.337 639.144 246.751 638.119L250.216 629.56Z" fill="#CECBCB"/>
<path fill-rule="evenodd" clip-rule="evenodd" d="M366.643 263.65C367.599 263.099 368.82 263.426 369.373 264.381L373.997 272.377C374.551 273.334 374.223 274.558 373.265 275.111L365.252 279.729C364.296 280.28 363.074 279.952 362.522 278.997L357.898 271.002C357.344 270.044 357.672 268.82 358.63 268.268L366.643 263.65Z" fill="#9BAAFA"/>
<path fill-rule="evenodd" clip-rule="evenodd" d="M344.777 103.133C345.733 102.583 346.954 102.911 347.506 103.866L358.758 123.336C359.311 124.294 358.982 125.519 358.023 126.071L350.007 130.682C349.051 131.232 347.83 130.905 347.278 129.949L336.027 110.479C335.474 109.521 335.803 108.296 336.761 107.745L344.777 103.133Z" fill="#786D67"/>
<path fill-rule="evenodd" clip-rule="evenodd" d="M358.691 6.97799C359.647 6.42703 360.868 6.75435 361.421 7.70948L366.045 15.7049C366.598 16.662 366.27 17.8868 365.312 18.439L357.3 23.0569C356.344 23.6078 355.122 23.2805 354.57 22.3254L349.945 14.33C349.392 13.3728 349.72 12.148 350.678 11.5959L358.691 6.97799Z" fill="#3756F6" fill-opacity="0.5"/>
<path fill-rule="evenodd" clip-rule="evenodd" d="M208.748 207.708C209.704 207.157 210.926 207.485 211.478 208.44L216.102 216.435C216.656 217.392 216.328 218.617 215.37 219.169L207.357 223.787C206.401 224.338 205.18 224.011 204.627 223.056L200.003 215.06C199.449 214.103 199.777 212.878 200.735 212.326L208.748 207.708Z" fill="#CECBCB"/>
<path fill-rule="evenodd" clip-rule="evenodd" d="M142.252 527.486C141.469 526.704 141.47 525.435 142.254 524.654L148.8 518.131C149.582 517.352 150.845 517.353 151.626 518.133L167.531 534.024C168.314 534.806 168.313 536.075 167.53 536.856L160.983 543.38C160.202 544.158 158.938 544.157 158.158 543.378L142.252 527.486Z" fill="#3756F6" fill-opacity="0.5"/>
<path fill-rule="evenodd" clip-rule="evenodd" d="M24.6929 6.75323C25.6489 6.20227 26.8705 6.52959 27.4229 7.48472L32.0472 15.4801C32.6008 16.4373 32.2726 17.6621 31.3146 18.2142L23.302 22.8321C22.3461 23.3831 21.1245 23.0558 20.5721 22.1006L15.9478 14.1053C15.3942 13.1481 15.7223 11.9233 16.6804 11.3711L24.6929 6.75323Z" fill="#343434"/>
<path fill-rule="evenodd" clip-rule="evenodd" d="M22.0422 102.013C22.9982 101.462 24.2197 101.789 24.7722 102.744L29.3964 110.74C29.9501 111.697 29.6219 112.922 28.6638 113.474L20.6513 118.092C19.6953 118.643 18.4737 118.315 17.9213 117.36L13.297 109.365C12.7434 108.408 13.0716 107.183 14.0296 106.631L22.0422 102.013Z" fill="#786D67"/>
<path fill-rule="evenodd" clip-rule="evenodd" d="M117.753 195.715C118.709 195.165 119.93 195.493 120.482 196.448L131.733 215.919C132.287 216.876 131.958 218.101 130.999 218.653L122.983 223.265C122.027 223.815 120.806 223.487 120.254 222.532L109.003 203.061C108.449 202.104 108.778 200.879 109.737 200.327L117.753 195.715Z" fill="#3756F6" fill-opacity="0.5"/>
<path fill-rule="evenodd" clip-rule="evenodd" d="M40.1678 297.032C40.8776 296.188 42.1372 296.078 42.983 296.786L50.0696 302.722C50.9174 303.432 51.0279 304.695 50.3163 305.542L44.3707 312.615C43.6609 313.46 42.4012 313.57 41.5555 312.862L34.4689 306.926C33.6211 306.215 33.5105 304.952 34.2221 304.106L40.1678 297.032Z" fill="#CECBCB"/>
<path fill-rule="evenodd" clip-rule="evenodd" d="M-5.85092 333.325C-6.80896 332.773 -7.13714 331.548 -6.58352 330.591L-1.95924 322.595C-1.40682 321.64 -0.185247 321.313 0.770725 321.864L8.78329 326.482C9.74133 327.034 10.0695 328.259 9.51589 329.216L4.89161 337.211C4.33919 338.166 3.11762 338.494 2.16164 337.943L-5.85092 333.325Z" fill="#B6C3CB"/>
<path fill-rule="evenodd" clip-rule="evenodd" d="M162.735 111.169C161.777 110.617 161.449 109.392 162.003 108.435L166.627 100.44C167.18 99.4847 168.401 99.1574 169.357 99.7083L177.37 104.326C178.328 104.878 178.656 106.103 178.102 107.06L173.478 115.056C172.926 116.011 171.704 116.338 170.748 115.787L162.735 111.169Z" fill="#B6C3CB"/>
<path fill-rule="evenodd" clip-rule="evenodd" d="M330.857 724.071C331.813 723.52 333.035 723.847 333.587 724.802L338.212 732.798C338.765 733.755 338.437 734.98 337.479 735.532L329.466 740.15C328.511 740.701 327.289 740.374 326.737 739.418L322.112 731.423C321.559 730.466 321.887 729.241 322.845 728.689L330.857 724.071Z" fill="#343434"/>
<path fill-rule="evenodd" clip-rule="evenodd" d="M349.084 558.921C349.765 558.054 351.019 557.9 351.889 558.579L369.613 572.415C370.485 573.095 370.639 574.355 369.956 575.225L364.256 582.496C363.575 583.364 362.321 583.517 361.451 582.839L343.727 569.003C342.855 568.322 342.701 567.063 343.383 566.192L349.084 558.921Z" fill="#CECBCB"/>
<path fill-rule="evenodd" clip-rule="evenodd" d="M26.0183 443.584C26.9743 443.033 28.1959 443.361 28.7483 444.316L33.3726 452.311C33.9262 453.268 33.598 454.493 32.64 455.045L24.6274 459.663C23.6714 460.214 22.4499 459.887 21.8975 458.932L17.2732 450.936C16.7196 449.979 17.0477 448.754 18.0058 448.202L26.0183 443.584Z" fill="#3756F6" fill-opacity="0.5"/>
<path fill-rule="evenodd" clip-rule="evenodd" d="M199.748 644.708C200.704 644.157 201.926 644.485 202.478 645.44L207.102 653.435C207.656 654.392 207.328 655.617 206.37 656.169L198.357 660.787C197.401 661.338 196.18 661.011 195.627 660.056L191.003 652.06C190.449 651.103 190.777 649.878 191.735 649.326L199.748 644.708Z" fill="#786D67"/>
<path fill-rule="evenodd" clip-rule="evenodd" d="M12.5639 556.044C13.5198 555.493 14.7414 555.82 15.2938 556.775L19.9181 564.77C20.4717 565.728 20.1435 566.952 19.1855 567.505L11.1729 572.122C10.217 572.673 8.99539 572.346 8.44298 571.391L3.81869 563.396C3.26508 562.438 3.59326 561.214 4.5513 560.661L12.5639 556.044Z" fill="#343434"/>
<path fill-rule="evenodd" clip-rule="evenodd" d="M310.977 467.399C311.933 466.848 313.154 467.176 313.707 468.131L318.331 476.126C318.884 477.083 318.556 478.308 317.598 478.86L309.586 483.478C308.63 484.029 307.408 483.702 306.856 482.747L302.231 474.751C301.678 473.794 302.006 472.569 302.964 472.017L310.977 467.399Z" fill="#3756F6" fill-opacity="0.5"/>
<path fill-rule="evenodd" clip-rule="evenodd" d="M345.982 354.213C346.647 353.333 347.899 353.157 348.781 353.82L356.169 359.378C357.053 360.043 357.229 361.298 356.563 362.181L350.997 369.555C350.332 370.436 349.08 370.611 348.198 369.948L340.81 364.391C339.926 363.726 339.749 362.47 340.416 361.587L345.982 354.213Z" fill="#B6C3CB"/>
<path fill-rule="evenodd" clip-rule="evenodd" d="M-9.22167 646.607C-8.55697 645.727 -7.3048 645.551 -6.42314 646.214L0.965286 651.772C1.84906 652.437 2.02555 653.692 1.35926 654.575L-4.20715 661.949C-4.87185 662.829 -6.12402 663.005 -7.00567 662.342L-14.3941 656.785C-15.2779 656.12 -15.4544 654.864 -14.7881 653.981L-9.22167 646.607Z" fill="#B6C3CB"/>
<path fill-rule="evenodd" clip-rule="evenodd" d="M168.726 -12.0495C168.993 -13.1204 170.078 -13.7724 171.149 -13.5062L180.128 -11.2753C181.201 -11.0088 181.854 -9.92256 181.587 -8.85007L176.14 12.9773C175.872 14.0482 174.788 14.7002 173.717 14.4341L164.737 12.2031C163.665 11.9366 163.012 10.8504 163.279 9.77788L168.726 -12.0495Z" fill="#9BAAFA"/>
<path fill-rule="evenodd" clip-rule="evenodd" d="M206.271 724.071C207.227 723.52 208.449 723.847 209.001 724.802L213.625 732.798C214.179 733.755 213.851 734.98 212.893 735.532L204.88 740.15C203.924 740.701 202.703 740.374 202.15 739.418L197.526 731.423C196.972 730.466 197.3 729.241 198.258 728.689L206.271 724.071Z" fill="#B6C3CB"/>
<path fill-rule="evenodd" clip-rule="evenodd" d="M100.669 602.943C101.624 602.392 102.845 602.718 103.398 603.673L108.032 611.671C108.587 612.628 108.259 613.853 107.301 614.406L87.8222 625.642C86.8667 626.193 85.6454 625.867 85.0924 624.912L80.4583 616.914C79.9038 615.957 80.2314 614.732 81.1895 614.179L100.669 602.943Z" fill="#B6C3CB"/>
</svg>
