<svg width="128" height="128" style="enable-background:new 0 0 128 128;" xmlns="http://www.w3.org/2000/svg" xmlns:xlink="http://www.w3.org/1999/xlink">
  <g id="图层_3">
    <g>
      <path d="M27.98,54.66l46.39,46.39l-63.31,22.68c-3.59,1.28-7.05-2.18-5.76-5.76L27.98,54.66z" style="fill:#FFC107;"/>
      <g>
        <defs>
          <path id="SVGID_3_" d="M27.98,54.66l46.39,46.39l-63.31,22.68c-3.59,1.28-7.05-2.18-5.76-5.76L27.98,54.66z"/>
        </defs>
        <clipPath id="SVGID_4_">
          <use style="overflow:visible;" xlink:href="#SVGID_3_"/>
        </clipPath>
        <g style="clip-path:url(#SVGID_4_);">
          <path d="M39.4,123.94c-8.46-1.78-16.1-3.92-23.29-8.95c-6.74-4.71-13.66-11.78-16.33-19.71 c-2.08-6.18-11.36-1.8-7.97,3.36c5.52,8.4,11.16,15.77,19.73,21.31c7.8,5.05,17.82,8.93,27.23,8.69 C41.36,128.57,42.13,124.52,39.4,123.94L39.4,123.94z" style="fill:#FF8F00;"/>
        </g>
        <g style="clip-path:url(#SVGID_4_);">
          <path d="M51.07,113.71c-8.46-1.78-16.1-3.92-23.29-8.95c-6.74-4.71-13.66-11.78-16.33-19.71 c-2.08-6.18-11.36-1.8-7.97,3.36c5.52,8.4,11.16,15.77,19.73,21.31c7.8,5.05,17.82,8.93,27.23,8.69 C53.04,118.34,53.8,114.28,51.07,113.71L51.07,113.71z" style="fill:#FF8F00;"/>
        </g>
        <g style="clip-path:url(#SVGID_4_);">
          <path d="M76.71,106.66c-12.95-2.49-24.54-5.73-35.55-13.37C30.8,86.1,20.83,75.6,16.3,63.65 c-2.27-5.98-11.16-2.02-7.97,3.36c7.39,12.46,16.01,23.17,28.23,31.23c11.23,7.41,25.85,13.37,39.52,13.12 C78.67,111.31,79.45,107.19,76.71,106.66L76.71,106.66z" style="fill:#FF8F00;"/>
        </g>
      </g>
      <g style="opacity:0.2;">
        <linearGradient id="SVGID_5_" gradientUnits="userSpaceOnUse" x1="61.3064" x2="5.3725" y1="68.743" y2="121.181">
          <stop offset="3.507653e-03" style="stop-color:#8D6E63"/>
          <stop offset="1" style="stop-color:#6D4C41"/>
        </linearGradient>
        <path d="M33.91,55.74c6.94,0,17.85,7.74,25.04,14.94c5.89,5.89,10.53,12.27,13.06,17.96 c2.44,5.5,2.12,8.64,1.11,9.65c-0.05,0.05-0.13,0.11-0.23,0.19c-0.05,0.04-0.1,0.07-0.14,0.11c-0.07,0.03-0.13,0.06-0.19,0.09 c-0.19,0.09-0.4,0.17-0.63,0.22c-0.1,0.02-0.2,0.05-0.29,0.09L10.47,120.9c-0.18,0.06-0.36,0.1-0.53,0.1 c-0.47,0-0.93-0.25-1.22-0.66c-0.2-0.28-0.39-0.75-0.17-1.36l22.11-61.71c0.18-0.15,0.35-0.33,0.49-0.53 c0.07-0.1,0.14-0.18,0.19-0.23C31.84,56,32.71,55.74,33.91,55.74 M33.91,52.74c-1.97,0-3.58,0.53-4.7,1.65 c-0.18,0.18-0.34,0.38-0.49,0.59l-0.32-0.32L5.72,117.96c-1.1,3.06,1.27,6.04,4.22,6.04c0.5,0,1.02-0.09,1.54-0.27l61.15-21.91 c0.44-0.11,0.85-0.25,1.23-0.44l0.93-0.33l-0.14-0.14c0.21-0.15,0.41-0.31,0.59-0.49c4.88-4.88-1.46-19.15-14.17-31.86 C51.27,58.75,40.54,52.74,33.91,52.74L33.91,52.74z" style="fill:url(#SVGID_5_);"/>
      </g>
      <ellipse cx="52.22" cy="77.4" rx="12.74" ry="33.15" style="fill:#795548;" transform="matrix(0.7071 -0.7071 0.7071 0.7071 -39.4333 59.5975)"/>
      <g style="opacity:0.2;">
        <path d="M33.57,55.28L33.57,55.28c7.08,0,18.21,7.89,25.54,15.23c13.01,13.01,17.24,25.4,14.43,28.2 c-0.53,0.53-1.43,0.8-2.66,0.8c-7.09,0-18.21-7.89-25.54-15.23c-13.01-13.01-17.24-25.4-14.43-28.2 C31.44,55.55,32.33,55.28,33.57,55.28 M33.57,52.28c-2.01,0-3.64,0.54-4.78,1.68c-4.97,4.97,1.49,19.5,14.43,32.45 c9.98,9.98,20.91,16.11,27.66,16.11c2.01,0,3.64-0.54,4.78-1.68c4.97-4.97-1.49-19.5-14.43-32.45 C51.25,58.41,40.33,52.28,33.57,52.28L33.57,52.28z" style="fill:#424242;"/>
      </g>
      <g>
        <polygon points="104,30.92 99.85,25 108.97,18.61 111.86,22.73 " style="fill:#1E88E5;"/>
        <polygon points="11.75,16.74 18.47,15.49 20.39,25.85 15.71,26.72 " style="fill:#FF5722;"/>
        <polygon points="61.17,13.31 54.8,14.98 52.22,5.16 56.65,4 " style="fill:#1E88E5;"/>
        <path d="M60.83,95.45c3.1-7.97,8.61-12.19,17.53-12.3c9.08-0.11,23.89,5.35,24.6,16.07 c0-1.64,0-3.27,0.01-4.91c-0.7,3.91-4.75,5.54-8.42,4.7c-3.9-0.89-6.46-4.17-6.96-8.02c0,1.64,0,3.27,0.01,4.91 c0.41-8.89,9.96-11.79,17.47-11.68c7.84,0.12,13.44,5.39,17.73,11.45c-0.77-1.09,0.8-3.87,0-5 c-4.51-6.36-10.34-11.61-18.57-11.46c-6.69,0.13-15.43,2.68-16.58,10.35c-0.39,2.62-0.48,6.55,0.51,9.02 c2.03,5.09,12.11,8.84,14.58,1.99c3.56-9.87-6.38-18.08-14.62-20.79c-6.16-2.02-13.22-2.44-19.21,0.42 c-4.45,2.13-6.38,5.85-8.09,10.24C60.26,91.91,61.38,94.02,60.83,95.45L60.83,95.45z" style="fill:#FF5722;"/>
        <path d="M71.16,65.22c3.5,1.86,7.48,4.44,11.45,2.32c2.29-1.23,3.47-3.57,4.44-5.87 c2.22-5.25,3.25-8.25,9.34-5.45c3.58,1.64,11.87,7.07,13.38,0.12c0.78-3.61-0.5-7.45-0.69-11c0,1.64,0,3.27-0.01,4.91 c0.91-6.28,10.05-4.1,13.91-2.43c-0.58-0.25,0.64-4.72,0-5c-4.17-1.81-13.12-3.8-13.92,2.77c-0.4,3.29,0.42,6.5,0.76,9.73 c0-1.64,0-3.27-0.01-4.91c-0.56,11.37-15.22-3.27-19.74,0.15c-2.51,1.9-2.8,6.55-4.49,9.09c-3.8,5.73-9.4,3.26-14.43,0.58 C71.82,60.57,70.44,64.84,71.16,65.22L71.16,65.22z" style="fill:#1E88E5;"/>
        <path d="M32.79,61.81c6.64-0.72,8.01-7.46,6.97-13.04c-1.49-8.01-13.26-8.73-14-16.54 c0,1.64,0,3.27,0.01,4.91c0.24-4.21,3.5-7.19,6.93-9.13c3.18-1.79,4.95-3.96,5.37-7.81c0.59-5.5-1.21-9.32-6.26-12.17 c0.69,0.39-0.74,4.58,0,5c2.52,1.42,5.95,4.07,6.26,7.17c0-1.67,0-3.33,0-5c-1.12,6.35-4.44,6.26-8.53,9.91 c-3.08,2.75-3.8,5.76-3.8,9.62c0,3.69,0.89,6.05,3.99,8.44c4.28,3.29,9.11,5.33,10.13,11.23c0-1.64,0-3.27-0.01-4.91 c-0.19,4.14-3.06,6.89-7.07,7.32C32.57,56.83,32.93,61.79,32.79,61.81L32.79,61.81z" style="fill:#1E88E5;"/>
        <path d="M43.73,80.2c5.3,2.27,12.95-2.87,14.41-7.96c0.73-2.53,0.78-6.18,0.44-8.8 c-0.48-3.71-3.58-6.08-4.94-9.42c-1.09-2.68-0.45-4.97,1.1-7.86c2.5-4.65,13.7-11.7,15.52-2.67c0-1.55-0.01-3.11-0.01-4.66 c-0.04,2.86-1.76,5.08-4.8,4.49c-2.96-0.57-4.25-3.27-4.64-5.96c0.01,1.42,0.01,2.85,0.02,4.27 C60.99,29.46,74.18,24.94,84.2,24.3c0.14-0.01-0.07-5,0-5c-12.76,0.81-23.41,6.79-23.41,20.56c0,3.68,1.02,9.04,5.96,8.56 c4.04-0.39,3.64-5.1,3.54-8.1c-0.14-4.15-2.95-7.01-7.49-5.9c-5.2,1.28-8.7,6.36-9.73,11.35c-0.55,2.66-0.48,5.59-0.35,8.3 c0.26,5.77,4.96,9.01,5.86,14.36c0-1.64,0-3.27-0.01-4.91c-0.3,4.27-1.71,7.38-5.45,9.87c-2.54,1.69-6.42,3.07-9.4,1.79 C44.3,75.44,43.09,79.93,43.73,80.2L43.73,80.2z" style="fill:#FF5722;"/>
      </g>
    </g>
  </g>
</svg>