<svg width="150" height="120" viewBox="0 0 150 120" fill="none" xmlns="http://www.w3.org/2000/svg">
<path d="M25.2738 107.286H19.2993L15.7509 96.0615H15.6785L12.2024 107.286H6.22793L0 89.2543H6.40898L9.52294 100.66H9.63157L12.8542 89.2543H18.8286L22.1598 100.66H22.2323L25.3824 89.2543H31.538L25.2738 107.286ZM52.977 98.1979C52.977 99.6703 52.7115 101.01 52.1804 102.217C51.6494 103.4 50.9252 104.414 50.0079 105.259C49.0906 106.079 48.0285 106.719 46.8215 107.178C45.6145 107.636 44.3231 107.866 42.9472 107.866C41.5954 107.866 40.3039 107.636 39.0728 107.178C37.8658 106.719 36.8037 106.079 35.8864 105.259C34.9933 104.414 34.2812 103.4 33.7501 102.217C33.219 101.01 32.9535 99.6703 32.9535 98.1979C32.9535 96.7254 33.219 95.3977 33.7501 94.2149C34.2812 93.032 34.9933 92.0303 35.8864 91.2095C36.8037 90.3888 37.8658 89.7612 39.0728 89.3267C40.3039 88.8922 41.5954 88.6749 42.9472 88.6749C44.3231 88.6749 45.6145 88.8922 46.8215 89.3267C48.0285 89.7612 49.0906 90.3888 50.0079 91.2095C50.9252 92.0303 51.6494 93.032 52.1804 94.2149C52.7115 95.3977 52.977 96.7254 52.977 98.1979ZM47.256 98.1979C47.256 97.6185 47.1595 97.0512 46.9663 96.496C46.7732 95.9408 46.4956 95.458 46.1335 95.0477C45.7714 94.6132 45.3249 94.2632 44.7938 93.9976C44.2627 93.7321 43.6472 93.5993 42.9472 93.5993C42.2471 93.5993 41.6316 93.7321 41.1005 93.9976C40.5694 94.2632 40.1229 94.6132 39.7608 95.0477C39.4228 95.458 39.1573 95.9408 38.9642 96.496C38.7952 97.0512 38.7107 97.6185 38.7107 98.1979C38.7107 98.7772 38.7952 99.3445 38.9642 99.8997C39.1573 100.455 39.4349 100.962 39.797 101.42C40.1591 101.855 40.6056 102.205 41.1367 102.471C41.6678 102.736 42.2833 102.869 42.9834 102.869C43.6834 102.869 44.299 102.736 44.83 102.471C45.3611 102.205 45.8077 101.855 46.1697 101.42C46.5318 100.962 46.7974 100.455 46.9663 99.8997C47.1595 99.3445 47.256 98.7772 47.256 98.1979ZM67.9254 84.2936C67.7081 84.2212 67.4546 84.1609 67.165 84.1126C66.8753 84.0643 66.5856 84.0402 66.296 84.0402C65.7408 84.0402 65.2942 84.1367 64.9562 84.3298C64.6183 84.523 64.3527 84.7885 64.1596 85.1264C63.9665 85.4402 63.8337 85.8023 63.7613 86.2127C63.6889 86.6231 63.6527 87.0334 63.6527 87.4438V89.2543H67.6719V93.7079H63.6527V107.286H57.7144V93.7079H54.4194V89.2543H57.7144V87.5162C57.7144 86.4058 57.8351 85.3558 58.0765 84.3661C58.3179 83.3522 58.7283 82.4711 59.3076 81.7228C59.9111 80.9503 60.7077 80.3469 61.6974 79.9124C62.7113 79.4537 63.9665 79.2244 65.4631 79.2244C65.9701 79.2244 66.4649 79.2606 66.9477 79.333C67.4546 79.3813 67.9133 79.4658 68.3237 79.5865L67.9254 84.2936ZM81.6217 94.1062C81.3561 94.0338 81.0906 93.9855 80.8251 93.9614C80.5837 93.9373 80.3423 93.9252 80.1009 93.9252C79.3043 93.9252 78.6284 94.07 78.0732 94.3597C77.5421 94.6494 77.1076 94.9994 76.7697 95.4098C76.4559 95.8201 76.2265 96.2667 76.0817 96.7495C75.9369 97.2323 75.8644 97.6547 75.8644 98.0168V107.286H69.9262V89.2543H75.6472V91.8613H75.7196C76.1783 90.944 76.83 90.1957 77.6749 89.6163C78.5198 89.037 79.4974 88.7473 80.6078 88.7473C80.8492 88.7473 81.0785 88.7594 81.2958 88.7835C81.5372 88.8077 81.7303 88.8439 81.8751 88.8922L81.6217 94.1062ZM102.764 98.1979C102.764 99.6703 102.499 101.01 101.968 102.217C101.437 103.4 100.712 104.414 99.7951 105.259C98.8778 106.079 97.8157 106.719 96.6087 107.178C95.4018 107.636 94.1103 107.866 92.7344 107.866C91.3826 107.866 90.0911 107.636 88.86 107.178C87.6531 106.719 86.5909 106.079 85.6737 105.259C84.7805 104.414 84.0684 103.4 83.5373 102.217C83.0063 101.01 82.7407 99.6703 82.7407 98.1979C82.7407 96.7254 83.0063 95.3977 83.5373 94.2149C84.0684 93.032 84.7805 92.0303 85.6737 91.2095C86.5909 90.3888 87.6531 89.7612 88.86 89.3267C90.0911 88.8922 91.3826 88.6749 92.7344 88.6749C94.1103 88.6749 95.4018 88.8922 96.6087 89.3267C97.8157 89.7612 98.8778 90.3888 99.7951 91.2095C100.712 92.0303 101.437 93.032 101.968 94.2149C102.499 95.3977 102.764 96.7254 102.764 98.1979ZM97.0432 98.1979C97.0432 97.6185 96.9467 97.0512 96.7536 96.496C96.5605 95.9408 96.2829 95.458 95.9208 95.0477C95.5587 94.6132 95.1121 94.2632 94.581 93.9976C94.05 93.7321 93.4344 93.5993 92.7344 93.5993C92.0343 93.5993 91.4188 93.7321 90.8877 93.9976C90.3567 94.2632 89.9101 94.6132 89.548 95.0477C89.2101 95.458 88.9445 95.9408 88.7514 96.496C88.5824 97.0512 88.4979 97.6185 88.4979 98.1979C88.4979 98.7772 88.5824 99.3445 88.7514 99.8997C88.9445 100.455 89.2221 100.962 89.5842 101.42C89.9463 101.855 90.3929 102.205 90.9239 102.471C91.455 102.736 92.0706 102.869 92.7706 102.869C93.4706 102.869 94.0862 102.736 94.6172 102.471C95.1483 102.205 95.5949 101.855 95.957 101.42C96.3191 100.962 96.5846 100.455 96.7536 99.8997C96.9467 99.3445 97.0432 98.7772 97.0432 98.1979ZM118.401 107.286V97.5099C118.401 97.003 118.364 96.5202 118.292 96.0615C118.22 95.6029 118.075 95.2046 117.857 94.8666C117.664 94.5045 117.399 94.2269 117.061 94.0338C116.723 93.8166 116.288 93.7079 115.757 93.7079C114.719 93.7079 113.923 94.0821 113.368 94.8304C112.812 95.5546 112.535 96.4598 112.535 97.5461V107.286H106.596V79.9124H112.535V91.5354H112.607C113.018 90.8112 113.669 90.1715 114.562 89.6163C115.456 89.037 116.53 88.7473 117.785 88.7473C119.016 88.7473 120.042 88.9646 120.863 89.3991C121.708 89.8336 122.384 90.4009 122.89 91.1009C123.422 91.7768 123.796 92.5613 124.013 93.4545C124.254 94.3476 124.375 95.2408 124.375 96.1339V107.286H118.401ZM147.99 98.1979C147.99 99.6703 147.724 101.01 147.193 102.217C146.662 103.4 145.938 104.414 145.021 105.259C144.104 106.079 143.041 106.719 141.835 107.178C140.628 107.636 139.336 107.866 137.96 107.866C136.608 107.866 135.317 107.636 134.086 107.178C132.879 106.719 131.817 106.079 130.899 105.259C130.006 104.414 129.294 103.4 128.763 102.217C128.232 101.01 127.966 99.6703 127.966 98.1979C127.966 96.7254 128.232 95.3977 128.763 94.2149C129.294 93.032 130.006 92.0303 130.899 91.2095C131.817 90.3888 132.879 89.7612 134.086 89.3267C135.317 88.8922 136.608 88.6749 137.96 88.6749C139.336 88.6749 140.628 88.8922 141.835 89.3267C143.041 89.7612 144.104 90.3888 145.021 91.2095C145.938 92.0303 146.662 93.032 147.193 94.2149C147.724 95.3977 147.99 96.7254 147.99 98.1979ZM142.269 98.1979C142.269 97.6185 142.172 97.0512 141.979 96.496C141.786 95.9408 141.509 95.458 141.147 95.0477C140.784 94.6132 140.338 94.2632 139.807 93.9976C139.276 93.7321 138.66 93.5993 137.96 93.5993C137.26 93.5993 136.645 93.7321 136.114 93.9976C135.582 94.2632 135.136 94.6132 134.774 95.0477C134.436 95.458 134.17 95.9408 133.977 96.496C133.808 97.0512 133.724 97.6185 133.724 98.1979C133.724 98.7772 133.808 99.3445 133.977 99.8997C134.17 100.455 134.448 100.962 134.81 101.42C135.172 101.855 135.619 102.205 136.15 102.471C136.681 102.736 137.296 102.869 137.996 102.869C138.696 102.869 139.312 102.736 139.843 102.471C140.374 102.205 140.821 101.855 141.183 101.42C141.545 100.962 141.81 100.455 141.979 99.8997C142.172 99.3445 142.269 98.7772 142.269 98.1979Z" fill="black"/>
<path fill-rule="evenodd" clip-rule="evenodd" d="M58.5 53.4485C63.9944 53.4485 68.4485 48.9944 68.4485 43.5C68.4485 38.0056 63.9944 33.5515 58.5 33.5515C53.0056 33.5515 48.5515 38.0056 48.5515 43.5C48.5515 48.9944 53.0056 53.4485 58.5 53.4485ZM58.5 59C67.0604 59 74 52.0604 74 43.5C74 34.9396 67.0604 28 58.5 28C49.9396 28 43 34.9396 43 43.5C43 52.0604 49.9396 59 58.5 59Z" fill="black"/>
<path fill-rule="evenodd" clip-rule="evenodd" d="M102.255 34.3486H84.7448V50.6514H102.255V34.3486ZM79 29V56H108V29H79Z" fill="black"/>
<path fill-rule="evenodd" clip-rule="evenodd" d="M76 6.53244L63.3365 14.4471H88.6635L76 6.53244ZM76 0L44 20H108L76 0Z" fill="black"/>
</svg>
