<svg width="150" height="120" viewBox="0 0 150 120" fill="none" xmlns="http://www.w3.org/2000/svg">
<path d="M25.2741 107.286H19.2996L15.7511 96.0615H15.6787L12.2026 107.286H6.22818L0.000244141 89.2543H6.40922L9.52319 100.66H9.63181L12.8544 89.2543H18.8289L22.1601 100.66H22.2325L25.3827 89.2543H31.5382L25.2741 107.286ZM52.9773 98.1979C52.9773 99.6703 52.7117 101.01 52.1807 102.217C51.6496 103.4 50.9254 104.414 50.0081 105.259C49.0908 106.079 48.0287 106.719 46.8217 107.178C45.6148 107.636 44.3233 107.866 42.9474 107.866C41.5956 107.866 40.3041 107.636 39.073 107.178C37.8661 106.719 36.804 106.079 35.8867 105.259C34.9935 104.414 34.2814 103.4 33.7503 102.217C33.2193 101.01 32.9537 99.6703 32.9537 98.1979C32.9537 96.7254 33.2193 95.3977 33.7503 94.2149C34.2814 93.032 34.9935 92.0303 35.8867 91.2095C36.804 90.3888 37.8661 89.7612 39.073 89.3267C40.3041 88.8922 41.5956 88.6749 42.9474 88.6749C44.3233 88.6749 45.6148 88.8922 46.8217 89.3267C48.0287 89.7612 49.0908 90.3888 50.0081 91.2095C50.9254 92.0303 51.6496 93.032 52.1807 94.2149C52.7117 95.3977 52.9773 96.7254 52.9773 98.1979ZM47.2563 98.1979C47.2563 97.6185 47.1597 97.0512 46.9666 96.496C46.7735 95.9408 46.4959 95.458 46.1338 95.0477C45.7717 94.6132 45.3251 94.2632 44.7941 93.9976C44.263 93.7321 43.6474 93.5993 42.9474 93.5993C42.2474 93.5993 41.6318 93.7321 41.1007 93.9976C40.5697 94.2632 40.1231 94.6132 39.761 95.0477C39.4231 95.458 39.1575 95.9408 38.9644 96.496C38.7954 97.0512 38.711 97.6185 38.711 98.1979C38.711 98.7772 38.7954 99.3445 38.9644 99.8997C39.1575 100.455 39.4351 100.962 39.7972 101.42C40.1593 101.855 40.6059 102.205 41.137 102.471C41.668 102.736 42.2836 102.869 42.9836 102.869C43.6836 102.869 44.2992 102.736 44.8303 102.471C45.3613 102.205 45.8079 101.855 46.17 101.42C46.5321 100.962 46.7976 100.455 46.9666 99.8997C47.1597 99.3445 47.2563 98.7772 47.2563 98.1979ZM67.9256 84.2936C67.7083 84.2212 67.4549 84.1609 67.1652 84.1126C66.8755 84.0643 66.5859 84.0402 66.2962 84.0402C65.741 84.0402 65.2944 84.1367 64.9565 84.3298C64.6185 84.523 64.353 84.7885 64.1599 85.1264C63.9668 85.4402 63.834 85.8023 63.7616 86.2127C63.6892 86.6231 63.6529 87.0334 63.6529 87.4438V89.2543H67.6721V93.7079H63.6529V107.286H57.7147V93.7079H54.4197V89.2543H57.7147V87.5162C57.7147 86.4058 57.8354 85.3558 58.0768 84.3661C58.3182 83.3522 58.7285 82.4711 59.3079 81.7228C59.9114 80.9503 60.708 80.3469 61.6977 79.9124C62.7115 79.4537 63.9668 79.2244 65.4634 79.2244C65.9703 79.2244 66.4652 79.2606 66.948 79.333C67.4549 79.3813 67.9135 79.4658 68.3239 79.5865L67.9256 84.2936ZM81.6219 94.1062C81.3564 94.0338 81.0908 93.9855 80.8253 93.9614C80.5839 93.9373 80.3425 93.9252 80.1011 93.9252C79.3045 93.9252 78.6286 94.07 78.0734 94.3597C77.5424 94.6494 77.1079 94.9994 76.7699 95.4098C76.4561 95.8201 76.2268 96.2667 76.0819 96.7495C75.9371 97.2323 75.8647 97.6547 75.8647 98.0168V107.286H69.9264V89.2543H75.6474V91.8613H75.7198C76.1785 90.944 76.8303 90.1957 77.6751 89.6163C78.52 89.037 79.4976 88.7473 80.6081 88.7473C80.8494 88.7473 81.0788 88.7594 81.296 88.7835C81.5374 88.8077 81.7305 88.8439 81.8754 88.8922L81.6219 94.1062ZM102.764 98.1979C102.764 99.6703 102.499 101.01 101.968 102.217C101.437 103.4 100.713 104.414 99.7954 105.259C98.8781 106.079 97.8159 106.719 96.609 107.178C95.402 107.636 94.1106 107.866 92.7346 107.866C91.3828 107.866 90.0914 107.636 88.8603 107.178C87.6533 106.719 86.5912 106.079 85.6739 105.259C84.7807 104.414 84.0686 103.4 83.5376 102.217C83.0065 101.01 82.741 99.6703 82.741 98.1979C82.741 96.7254 83.0065 95.3977 83.5376 94.2149C84.0686 93.032 84.7807 92.0303 85.6739 91.2095C86.5912 90.3888 87.6533 89.7612 88.8603 89.3267C90.0914 88.8922 91.3828 88.6749 92.7346 88.6749C94.1106 88.6749 95.402 88.8922 96.609 89.3267C97.8159 89.7612 98.8781 90.3888 99.7954 91.2095C100.713 92.0303 101.437 93.032 101.968 94.2149C102.499 95.3977 102.764 96.7254 102.764 98.1979ZM97.0435 98.1979C97.0435 97.6185 96.9469 97.0512 96.7538 96.496C96.5607 95.9408 96.2831 95.458 95.921 95.0477C95.5589 94.6132 95.1123 94.2632 94.5813 93.9976C94.0502 93.7321 93.4347 93.5993 92.7346 93.5993C92.0346 93.5993 91.419 93.7321 90.888 93.9976C90.3569 94.2632 89.9103 94.6132 89.5482 95.0477C89.2103 95.458 88.9448 95.9408 88.7517 96.496C88.5827 97.0512 88.4982 97.6185 88.4982 98.1979C88.4982 98.7772 88.5827 99.3445 88.7517 99.8997C88.9448 100.455 89.2224 100.962 89.5845 101.42C89.9465 101.855 90.3931 102.205 90.9242 102.471C91.4552 102.736 92.0708 102.869 92.7708 102.869C93.4709 102.869 94.0864 102.736 94.6175 102.471C95.1486 102.205 95.5951 101.855 95.9572 101.42C96.3193 100.962 96.5848 100.455 96.7538 99.8997C96.9469 99.3445 97.0435 98.7772 97.0435 98.1979ZM118.401 107.286V97.5099C118.401 97.003 118.365 96.5202 118.292 96.0615C118.22 95.6029 118.075 95.2046 117.858 94.8666C117.665 94.5045 117.399 94.2269 117.061 94.0338C116.723 93.8166 116.289 93.7079 115.758 93.7079C114.72 93.7079 113.923 94.0821 113.368 94.8304C112.813 95.5546 112.535 96.4598 112.535 97.5461V107.286H106.597V79.9124H112.535V91.5354H112.607C113.018 90.8112 113.67 90.1715 114.563 89.6163C115.456 89.037 116.53 88.7473 117.785 88.7473C119.016 88.7473 120.042 88.9646 120.863 89.3991C121.708 89.8336 122.384 90.4009 122.891 91.1009C123.422 91.7768 123.796 92.5613 124.013 93.4545C124.255 94.3476 124.375 95.2408 124.375 96.1339V107.286H118.401ZM147.99 98.1979C147.99 99.6703 147.725 101.01 147.194 102.217C146.663 103.4 145.938 104.414 145.021 105.259C144.104 106.079 143.042 106.719 141.835 107.178C140.628 107.636 139.336 107.866 137.96 107.866C136.609 107.866 135.317 107.636 134.086 107.178C132.879 106.719 131.817 106.079 130.9 105.259C130.007 104.414 129.294 103.4 128.763 102.217C128.232 101.01 127.967 99.6703 127.967 98.1979C127.967 96.7254 128.232 95.3977 128.763 94.2149C129.294 93.032 130.007 92.0303 130.9 91.2095C131.817 90.3888 132.879 89.7612 134.086 89.3267C135.317 88.8922 136.609 88.6749 137.96 88.6749C139.336 88.6749 140.628 88.8922 141.835 89.3267C143.042 89.7612 144.104 90.3888 145.021 91.2095C145.938 92.0303 146.663 93.032 147.194 94.2149C147.725 95.3977 147.99 96.7254 147.99 98.1979ZM142.269 98.1979C142.269 97.6185 142.173 97.0512 141.98 96.496C141.786 95.9408 141.509 95.458 141.147 95.0477C140.785 94.6132 140.338 94.2632 139.807 93.9976C139.276 93.7321 138.66 93.5993 137.96 93.5993C137.26 93.5993 136.645 93.7321 136.114 93.9976C135.583 94.2632 135.136 94.6132 134.774 95.0477C134.436 95.458 134.171 95.9408 133.977 96.496C133.808 97.0512 133.724 97.6185 133.724 98.1979C133.724 98.7772 133.808 99.3445 133.977 99.8997C134.171 100.455 134.448 100.962 134.81 101.42C135.172 101.855 135.619 102.205 136.15 102.471C136.681 102.736 137.297 102.869 137.997 102.869C138.697 102.869 139.312 102.736 139.843 102.471C140.374 102.205 140.821 101.855 141.183 101.42C141.545 100.962 141.811 100.455 141.98 99.8997C142.173 99.3445 142.269 98.7772 142.269 98.1979Z" fill="black"/>
<path d="M53.7478 54.8791V23.9583L75.2468 5.24988L96.7458 23.9583V54.8791H53.7478Z" stroke="black" stroke-width="7.9207"/>
</svg>
