<svg width="24" height="24" viewBox="0 0 24 24" fill="none" xmlns="http://www.w3.org/2000/svg">
<mask id="path-1-inside-1" fill="white">
<path fill-rule="evenodd" clip-rule="evenodd" d="M10 4C8.34315 4 7 5.34315 7 7V9V10.0909V14L5 17H10.4001V19.9091H13.6001L13.6001 17H19L17 14V10.0909V9V7C17 5.34315 15.6569 4 14 4H10Z"/>
</mask>
<path d="M7 14L7.83205 14.5547L8 14.3028V14H7ZM5 17L4.16795 16.4453L3.13148 18H5V17ZM10.4001 17H11.4001V16H10.4001V17ZM10.4001 19.9091H9.40015V20.9091H10.4001V19.9091ZM13.6001 19.9091V20.9091H14.6001V19.9091H13.6001ZM13.6001 17V16H12.6001L12.6001 17H13.6001ZM19 17V18H20.8685L19.8321 16.4453L19 17ZM17 14H16V14.3028L16.1679 14.5547L17 14ZM8 7C8 5.89543 8.89543 5 10 5V3C7.79086 3 6 4.79086 6 7H8ZM8 9V7H6V9H8ZM8 10.0909V9H6V10.0909H8ZM8 14V10.0909H6V14H8ZM5.83205 17.5547L7.83205 14.5547L6.16795 13.4453L4.16795 16.4453L5.83205 17.5547ZM10.4001 16H5V18H10.4001V16ZM11.4001 19.9091V17H9.40015V19.9091H11.4001ZM13.6001 18.9091H10.4001V20.9091H13.6001V18.9091ZM12.6001 17L12.6001 19.9091H14.6001L14.6001 17H12.6001ZM19 16H13.6001V18H19V16ZM16.1679 14.5547L18.1679 17.5547L19.8321 16.4453L17.8321 13.4453L16.1679 14.5547ZM16 10.0909V14H18V10.0909H16ZM16 9V10.0909H18V9H16ZM16 7V9H18V7H16ZM14 5C15.1046 5 16 5.89543 16 7H18C18 4.79086 16.2091 3 14 3V5ZM10 5H14V3H10V5Z" fill="#858585" mask="url(#path-1-inside-1)"/>
</svg>
